<svg xmlns="http://www.w3.org/2000/svg" viewBox="0 0 32.49 39.41"><defs><style>.cls-1{isolation:isolate;}.cls-2{mix-blend-mode:multiply;}.cls-3{fill:none;stroke:#147b2b;stroke-miterlimit:10;stroke-width:2px;}.cls-4{fill:#beccc1;}.cls-5{fill:#9da59f;}</style></defs><title>Коневые каналы</title><g class="cls-1"><g id="Слой_2" data-name="Слой 2"><g id="Слой_1-2" data-name="Слой 1" class="cls-2"><path class="cls-3" d="M7.65,1.11C5.14,1.23.22,3.62,1.1,11.43s6,24.91,9.44,26.8,2-11.43,4.91-13c4.21-2.23,3.41,9.09,4.53,12,.64,1.64,4.43,4,10.19-18.62C36.38-5.78,18.72,2.23,16.83,2.36a6.75,6.75,0,0,1-2.35-.3A17.69,17.69,0,0,0,7.65,1.11Z"/><path class="cls-4" d="M22.2,2.14c.45.15,1.7,2,2.9,8,2.88,14.47-4,29.28-3.75,25.13.59-10.44-2.26-13.73-6.79-12.27-5,1.6-2.65,14-3.82,12.82C8.28,33.25,6.06,18.25,7.88,9.72c1.68-7.93,2.85-7.54,3-7.51A26.29,26.29,0,0,1,14.25,3a7.53,7.53,0,0,0,4.31-.09A20.86,20.86,0,0,1,22.2,2.14Z"/><path class="cls-5" d="M10,17.78c-1.8,3.57-1.3,12.57.13,16.29,2,5.17-1.57-7.08,2.7-11,1.57-1.42,5.73-2.23,7.56.67,2,3.16,1.83,8.18,1.39,11s4.62-9.92,1.17-16.57C19.9,12.31,12.18,13.38,10,17.78Z"/></g></g></g></svg>