<svg xmlns="http://www.w3.org/2000/svg" viewBox="0 0 26.28 38.6"><defs><style>.cls-1{isolation:isolate;}.cls-2{mix-blend-mode:multiply;}.cls-3,.cls-4,.cls-5{fill:none;stroke:#147b2b;stroke-miterlimit:10;}.cls-3,.cls-4{stroke-width:1.5px;}.cls-4,.cls-5{stroke-linecap:round;}.cls-5{stroke-width:2px;}.cls-6{fill:#147b2b;}</style></defs><title>Консультация</title><g class="cls-1"><g id="Слой_2" data-name="Слой 2"><g id="Слой_1-2" data-name="Слой 1" class="cls-2"><path class="cls-3" d="M9.27,21.15c-1.12.05-3.33,1.12-2.93,4.62s2.7,11.15,4.22,12,.9-5.12,2.2-5.8c1.89-1,1.53,4.07,2,5.35.29.73,2,1.79,4.56-8.34,2.78-10.91-5.13-7.33-6-7.27a3.09,3.09,0,0,1-1.06-.13A7.63,7.63,0,0,0,9.27,21.15Z"/><path class="cls-4" d="M12,21.48c.85.22,2.55.88,2.89,1.68"/><path class="cls-5" d="M10.92,6.81C8.59,5.49,9.77,1.25,13.25,1s6.23,3.9,1.17,8.44c-1.92,1.72-1.54,4.13-1.48,5.55"/><circle class="cls-6" cx="13.1" cy="17.87" r="1.04"/><path class="cls-4" d="M21.14,11.3c-1.22-1.22.24-3.66,2.45-3.21s3.21,3.49-.72,5.45c-1.49.75-1.66,2.31-1.87,3.21"/><circle class="cls-6" cx="20.61" cy="18.56" r="0.67"/><path class="cls-4" d="M2.33,13.06C.61,13,0,10.22,2,9s4.73.39,3.18,4.5c-.59,1.55.34,2.82.81,3.62"/><circle class="cls-6" cx="6.88" cy="18.76" r="0.67"/></g></g></g></svg>