<svg xmlns="http://www.w3.org/2000/svg" viewBox="0 0 41.71 43.95"><defs><style>.cls-1{isolation:isolate;}.cls-2{mix-blend-mode:multiply;}.cls-3,.cls-4{fill:none;stroke:#147b2b;stroke-miterlimit:10;stroke-width:2px;}.cls-4{stroke-linecap:round;}.cls-5{fill:#147b2b;}</style></defs><title>Эстетика</title><g class="cls-1"><g id="Слой_2" data-name="Слой 2"><g id="Слой_1-2" data-name="Слой 1" class="cls-2"><path class="cls-3" d="M11.94,5.64C9.44,5.76,4.52,8.16,5.4,16s6,24.92,9.44,26.81,2-11.43,4.9-13c4.22-2.22,3.41,9.1,4.53,12,.65,1.64,4.43,4,10.2-18.62C40.68-1.24,23,6.77,21.12,6.9a6.75,6.75,0,0,1-2.35-.3A17.85,17.85,0,0,0,11.94,5.64Z"/><path class="cls-4" d="M18.06,6.39c1.9.49,5.7,2,6.47,3.75"/><polygon class="cls-5" points="30.88 12.02 31.43 14.88 33.3 15.45 31.49 16.15 30.96 19.21 30.32 16.14 28.46 15.45 30.4 14.89 30.88 12.02"/><polygon class="cls-5" points="2.03 1.43 2.5 3.72 4.07 4.18 2.54 4.74 2.1 7.2 1.56 4.74 0 4.18 1.63 3.73 2.03 1.43"/><polygon class="cls-5" points="39.24 19.73 39.55 21.36 40.61 21.68 39.58 22.08 39.28 23.82 38.92 22.07 37.87 21.68 38.97 21.36 39.24 19.73"/><polygon class="cls-5" points="38.75 0 39.42 3.51 41.71 4.21 39.49 5.07 38.84 8.83 38.06 5.06 35.78 4.21 38.16 3.52 38.75 0"/></g></g></g></svg>