<svg xmlns="http://www.w3.org/2000/svg" viewBox="0 0 43.33 27.87"><defs><style>.cls-1{isolation:isolate;}.cls-2{mix-blend-mode:multiply;}.cls-3,.cls-4,.cls-5,.cls-6{fill:none;stroke:#147b2b;}.cls-3,.cls-4{stroke-miterlimit:10;stroke-width:1.5px;}.cls-4,.cls-5,.cls-6{stroke-linecap:round;}.cls-5,.cls-6{stroke-linejoin:round;}.cls-6{stroke-width:0.75px;}</style></defs><title>Протезирование на имплантант</title><g class="cls-1"><g id="Слой_2" data-name="Слой 2"><g id="Слой_1-2" data-name="Слой 1" class="cls-2"><path class="cls-3" d="M3.73,10.41C2.61,10.47.4,11.54.8,15S3.5,26.19,5,27s.9-5.11,2.2-5.8c1.89-1,1.53,4.07,2,5.35.29.74,2,1.8,4.56-8.33,2.78-10.92-5.13-7.33-6-7.27a3.09,3.09,0,0,1-1.06-.14A8,8,0,0,0,3.73,10.41Z"/><path class="cls-4" d="M6.47,10.75c.85.22,2.55.88,2.89,1.68"/><path class="cls-3" d="M31.91,10.41c-1.12.06-3.33,1.13-2.93,4.62s2.7,11.16,4.22,12,.9-5.11,2.2-5.8c1.89-1,1.53,4.07,2,5.35.29.74,2,1.8,4.56-8.33,2.78-10.92-5.13-7.33-6-7.27A3,3,0,0,1,35,10.84,8.11,8.11,0,0,0,31.91,10.41Z"/><path class="cls-4" d="M34.65,10.75c.85.22,2.55.88,2.89,1.68"/><line class="cls-3" x1="15.89" y1="8.43" x2="28.34" y2="8.63"/><path class="cls-4" d="M28.34,8.63c2.78-10.91-5.13-7.33-6-7.27a3,3,0,0,1-1.05-.13A7.87,7.87,0,0,0,18.25.8c-1.12,0-3.32,1.13-2.93,4.62a28.59,28.59,0,0,0,.56,3"/><path class="cls-4" d="M21,1.13c.85.22,2.55.88,2.89,1.68"/><path class="cls-5" d="M19.49,8.63s1,9.74,2.47,9.74c1.66,0,2.47-9.74,2.47-9.74"/><path class="cls-6" d="M19.23,10c-.62.82,3.49,1.92,5.39,1.57"/><path class="cls-6" d="M19.5,11.65c-.44,1,2.76,1.77,4.86,1.66"/><path class="cls-6" d="M19.68,13.5c-.39.81,2.1,1.72,4.2,1.62"/></g></g></g></svg>