<svg xmlns="http://www.w3.org/2000/svg" viewBox="0 0 33.7 40.89"><defs><style>.cls-1{isolation:isolate;}.cls-2{mix-blend-mode:multiply;}.cls-3,.cls-4{fill:none;stroke:#147b2b;stroke-miterlimit:10;stroke-width:2px;}.cls-4{stroke-linecap:round;}.cls-5{fill:#147b2b;}</style></defs><title>Кириес</title><g class="cls-1"><g id="Слой_2" data-name="Слой 2"><g id="Слой_1-2" data-name="Слой 1" class="cls-2"><path class="cls-3" d="M7.91,1.11c-2.6.13-7.72,2.62-6.8,10.73s6.28,25.9,9.81,27.86S13,27.82,16,26.23c4.38-2.32,3.54,9.45,4.71,12.43.67,1.7,4.61,4.16,10.6-19.36C37.78-6,19.42,2.28,17.46,2.42A7.05,7.05,0,0,1,15,2.1,18.65,18.65,0,0,0,7.91,1.11Z"/><path class="cls-4" d="M14.27,1.89c2,.51,5.93,2,6.72,3.89"/><ellipse class="cls-5" cx="10.24" cy="6.51" rx="2.78" ry="2.43"/><ellipse class="cls-5" cx="26.98" cy="7.71" rx="2.47" ry="1.93"/><circle class="cls-5" cx="25.28" cy="19.15" r="1.3"/><ellipse class="cls-5" cx="22.24" cy="12.49" rx="1.74" ry="2.85"/></g></g></g></svg>