<svg xmlns="http://www.w3.org/2000/svg" viewBox="0 0 46.14 38.92"><defs><style>.cls-1{isolation:isolate;}.cls-2{mix-blend-mode:multiply;}.cls-3{fill:none;stroke:#147b2b;stroke-linecap:round;stroke-linejoin:round;stroke-width:1.5px;}</style></defs><title>Несъёмное протезирование</title><g class="cls-1"><g id="Слой_2" data-name="Слой 2"><g id="Слой_1-2" data-name="Слой 1" class="cls-2"><rect class="cls-3" x="0.75" y="31.43" width="44.64" height="6.75"/><rect class="cls-3" x="0.75" y="24.59" width="8.68" height="6.75"/><rect class="cls-3" x="0.75" y="17.76" width="8.68" height="6.75"/><rect class="cls-3" x="19.32" y="0.75" width="8.8" height="6.75"/><rect class="cls-3" x="27.89" y="0.75" width="7.9" height="6.75"/><rect class="cls-3" x="27.89" y="7.5" width="7.9" height="6.75"/><rect class="cls-3" x="9.43" y="24.59" width="9.22" height="6.75"/><rect class="cls-3" x="36.63" y="24.59" width="8.76" height="6.75"/><line class="cls-3" x1="9.43" y1="31.43" x2="9.43" y2="38.17"/><line class="cls-3" x1="18.65" y1="31.43" x2="18.65" y2="38.17"/><line class="cls-3" x1="36.63" y1="31.43" x2="36.63" y2="38.17"/><polyline class="cls-3" points="28.12 38.17 28.12 24.59 18.65 24.59 18.65 17.76 9.43 17.76"/><polyline class="cls-3" points="36.63 24.59 36.63 17.76 45.39 17.76 45.39 24.59"/></g></g></g></svg>