<svg xmlns="http://www.w3.org/2000/svg" viewBox="0 0 36.74 41.9"><defs><style>.cls-1{isolation:isolate;}.cls-2{mix-blend-mode:multiply;}.cls-3,.cls-4{fill:none;stroke:#147b2b;stroke-miterlimit:10;stroke-width:2px;}.cls-4{stroke-linecap:round;}.cls-5{fill:#147b2b;}</style></defs><title>Ортодонтия</title><g class="cls-1"><g id="Слой_2" data-name="Слой 2"><g id="Слой_1-2" data-name="Слой 1" class="cls-2"><path class="cls-3" d="M6,12.89C4.11,13,.42,14.78,1.08,20.64S5.61,39.35,8.16,40.76,9.67,32.19,11.85,31c3.16-1.67,2.56,6.83,3.4,9,.48,1.23,3.32,3,7.65-14,4.66-18.31-8.6-12.29-10-12.2a4.9,4.9,0,0,1-1.76-.22A13.46,13.46,0,0,0,6,12.89Z"/><path class="cls-4" d="M10.58,13.46c1.43.36,4.28,1.47,4.86,2.81"/><path class="cls-5" d="M17.32,1s2.09-1.75,4-.6.69,2.8,2.71,4.44c1.27,1,6.66,5.45,7,5.66.93.57,2-.1,3.71.79a4.3,4.3,0,0,1,2,3.19,25.62,25.62,0,0,0-2.4-1.17c-.72,0-1.57,1.89-1.3,2.41a15.34,15.34,0,0,0,2.47,1.23s-1.64,2-3.62.95c-2.73-1.43-1.43-3.87-2.76-4.82-1.06-.76-7.32-6-7.59-6.17C20.7,6.25,19.25,7,18,6.41a2.82,2.82,0,0,1-1.8-3s2.34.92,2.58,1a2,2,0,0,0,1-2.18C19.7,2,17.32,1,17.32,1Z"/></g></g></g></svg>