<svg xmlns="http://www.w3.org/2000/svg" viewBox="0 0 27.8 33.08"><defs><style>.cls-1{isolation:isolate;}.cls-2{mix-blend-mode:multiply;}.cls-3,.cls-4{fill:none;stroke:#147b2b;stroke-miterlimit:10;}.cls-4{stroke-linecap:round;}</style></defs><title>Съёмное протезирование</title><g class="cls-1"><g id="Слой_2" data-name="Слой 2"><g id="Слой_1-2" data-name="Слой 1" class="cls-2"><path class="cls-3" d="M8.9,10.35c-1.35.07-4,1.3-3.54,5.31s3.27,12.81,5.11,13.79,1.08-5.88,2.65-6.67c2.28-1.15,1.85,4.68,2.46,6.15.34.84,2.39,2.06,5.51-9.58,3.36-12.54-6.2-8.42-7.22-8.35a3.76,3.76,0,0,1-1.27-.16A10.25,10.25,0,0,0,8.9,10.35Z"/><path class="cls-4" d="M12.21,10.74c1,.25,3.09,1,3.5,1.93"/><polyline class="cls-4" points="0.5 0.5 1.47 6.97 5.3 32.58 21.8 32.58 27.3 0.5"/><path class="cls-4" d="M1.35,6.19A2.31,2.31,0,0,0,4.27,6l.38-.27a2.45,2.45,0,0,1,2.8,0L8,6.1a2.15,2.15,0,0,0,2.7-.16l.28-.26a2.17,2.17,0,0,1,2.85-.07l.57.48a1.85,1.85,0,0,0,2.42,0l.32-.29a2.37,2.37,0,0,1,3.09,0l.37.31a2,2,0,0,0,2.59,0l.37-.32a1.74,1.74,0,0,1,2.24,0l.58.49"/></g></g></g></svg>