<svg xmlns="http://www.w3.org/2000/svg" viewBox="0 0 35.32 44.1"><defs><style>.cls-1{isolation:isolate;}.cls-2{mix-blend-mode:multiply;}.cls-3,.cls-4{fill:none;stroke:#147b2b;stroke-linecap:round;stroke-width:2px;}.cls-3{stroke-linejoin:round;}.cls-4{stroke-miterlimit:10;}</style></defs><title>Хирургия1</title><g class="cls-1"><g id="Слой_2" data-name="Слой 2"><g id="Слой_1-2" data-name="Слой 1" class="cls-2"><path class="cls-3" d="M27.06,16.88l-1.58-.47-.91-5.73L22.3,9.14,20.8,6.06c-1.92.39-3.48,1-4,1a7,7,0,0,1-2.35-.3,17.65,17.65,0,0,0-6.83-1C5.14,5.91.22,8.31,1.1,16.11s6,24.92,9.44,26.8,2-11.42,4.91-13c4.21-2.23,3.41,9.09,4.53,12,.64,1.64,4.43,4,10.19-18.63.12-.46.21-.88.31-1.32l-3.15-1.85Z"/><path class="cls-3" d="M23.65,1.37l1.07,3.34L27,6.31l1.35,5.41,1.6.45.25,3.25,3.15,1.86C37.17.56,29,.28,23.65,1.37Z"/><path class="cls-4" d="M13.77,6.54c1.9.49,5.7,2,6.46,3.75"/></g></g></g></svg>