<svg xmlns="http://www.w3.org/2000/svg" viewBox="0 0 40.9 45.55"><defs><style>.cls-1{isolation:isolate;}.cls-2{mix-blend-mode:multiply;}.cls-3,.cls-4,.cls-5,.cls-7{fill:none;stroke-miterlimit:10;}.cls-3,.cls-4,.cls-5{stroke:#147b2b;}.cls-3,.cls-4{stroke-width:1.5px;}.cls-4,.cls-5,.cls-7{stroke-linecap:round;}.cls-5{stroke-width:2px;}.cls-6{fill:#147b2b;}.cls-7{stroke:#fff;stroke-width:0.5px;}</style></defs><title>Терапевтическая</title><g class="cls-1"><g id="Слой_2" data-name="Слой 2"><g id="Слой_1-2" data-name="Слой 1" class="cls-2"><path class="cls-3" d="M13.76,10.9c-1,0-2.88,1-2.53,4s2.33,9.64,3.64,10.37.78-4.42,1.9-5c1.63-.87,1.32,3.51,1.75,4.62.25.63,1.72,1.55,3.94-7.2,2.41-9.43-4.43-6.33-5.15-6.28a2.67,2.67,0,0,1-.91-.12A7.09,7.09,0,0,0,13.76,10.9Z"/><path class="cls-4" d="M16.12,11.19c.74.19,2.2.76,2.5,1.45"/><circle class="cls-5" cx="17.08" cy="17.08" r="16.08"/><path class="cls-6" d="M24.54,31.06s10.7,11.62,12.63,13.68a2.08,2.08,0,0,0,3.32-2.52L30.35,26.41"/><circle class="cls-7" cx="17.08" cy="17.08" r="16.08"/></g></g></g></svg>