<svg xmlns="http://www.w3.org/2000/svg" viewBox="0 0 51.48 49.41"><defs><style>.cls-1{isolation:isolate;}.cls-2{mix-blend-mode:multiply;}.cls-3,.cls-5{fill:none;stroke:#147b2b;}.cls-3{stroke-miterlimit:10;}.cls-4{fill:#147b2b;}.cls-5{stroke-linecap:round;stroke-linejoin:round;}</style></defs><title>Лого</title><g class="cls-1"><g id="Слой_2" data-name="Слой 2"><g id="Слой_1-2" data-name="Слой 1" class="cls-2"><path class="cls-3" d="M51,24.74c0,13.39-11.52,24.17-24.91,24.17S.5,38.1.5,24.71,11.85.5,25.25.5,51,11.35,51,24.74Z"/><path class="cls-4" d="M17.25,10c-2.19.11-6.5,2.21-5.73,9s5.29,21.83,8.27,23.48,1.76-10,4.3-11.35c3.69-2,3,8,4,10.47.56,1.43,3.88,3.5,8.92-16.32C42.42,4,27,11,25.3,11.1,23,11.26,21.88,9.78,17.25,10Z"/><polyline class="cls-5" points="6.38 9.6 48 14.17 24.78 48.91"/><line class="cls-5" x1="6.38" y1="9.14" x2="26.07" y2="48.91"/><line class="cls-5" x1="50.91" y1="23" x2="24.78" y2="48.91"/><line class="cls-5" x1="7.91" y1="7.53" x2="48" y2="35.38"/><line class="cls-5" x1="26.07" y1="48.91" x2="49.22" y2="33.6"/></g></g></g></svg>